<?xml version="1.0" encoding="utf-8"?>
<!-- Generator: Adobe Illustrator 18.0.0, SVG Export Plug-In . SVG Version: 6.00 Build 0)  -->
<!DOCTYPE svg PUBLIC "-//W3C//DTD SVG 1.1//EN" "http://www.w3.org/Graphics/SVG/1.1/DTD/svg11.dtd">
<svg version="1.1" id="Layer_1" xmlns="http://www.w3.org/2000/svg" xmlns:xlink="http://www.w3.org/1999/xlink" x="0px" y="0px"
	 viewBox="0 0 750 200" enable-background="new 0 0 750 200" xml:space="preserve">
<g>
	<path d="M486.3,37.2v22.3c-13-6.3-25.8-9.4-38.2-9.4c-12,0-21.3,3-27.8,9.1c-6.5,6.1-9.7,13.8-9.7,23.1c0,9,3.2,16.3,9.7,21.8
		c6.5,5.6,15,8.4,25.6,8.4c5.6,0,11.3-1.2,16.9-3.7V96.9H448V78.1h40.4v41.8c-4.1,4.1-10.2,7.4-18.5,9.9s-16.5,3.8-24.6,3.8
		c-17.8,0-32.5-4.9-43.9-14.8c-11.5-9.8-17.2-22.4-17.2-37.5c0-15.5,5.7-28.2,17.2-38c11.4-9.8,26.3-14.7,44.5-14.7
		C460.9,28.7,474.4,31.6,486.3,37.2z"/>
	<path d="M586.3,113.6v18.8h-75.4V30.1h74.4v18.8h-48.9v21.5H583V89h-46.7v24.6H586.3z"/>
	<path d="M660.8,68l32.9-37.9h22.2v102.3h-25.5V68.5l-27.6,32.1h-3.8l-27.6-32.1v63.9h-25.5V30.1h22.1L660.8,68z"/>
</g>
<polygon fill="#ED1C24" points="646.5,86.2 660.8,68.1 675,86.2 "/>
<line fill="none" stroke="#ED1C24" stroke-width="3" stroke-miterlimit="10" x1="22.9" y1="148.5" x2="715.6" y2="148.5"/>
<g>
	<path d="M43.3,164.5v4.2c-2.4-1.2-4.8-1.8-7.1-1.8c-2.2,0-4,0.6-5.2,1.7c-1.2,1.1-1.8,2.6-1.8,4.3c0,1.7,0.6,3,1.8,4.1
		c1.2,1,2.8,1.6,4.8,1.6c1,0,2.1-0.2,3.2-0.7v-2.2h-2.8v-3.5h7.5v7.8c-0.8,0.8-1.9,1.4-3.5,1.9s-3.1,0.7-4.6,0.7
		c-3.3,0-6.1-0.9-8.2-2.8c-2.1-1.8-3.2-4.2-3.2-7c0-2.9,1.1-5.3,3.2-7.1c2.1-1.8,4.9-2.7,8.3-2.7C38.5,162.9,41.1,163.4,43.3,164.5z
		"/>
	<path d="M61.9,178.8v3.5H47.9v-19.1h13.9v3.5h-9.1v4h8.7v3.5h-8.7v4.6H61.9z"/>
	<path d="M75.9,170.3l6.1-7.1h4.1v19.1h-4.8v-11.9l-5.2,6h-0.7l-5.2-6v11.9h-4.8v-19.1h4.1L75.9,170.3z"/>
	<path d="M108.2,176.4v4.2c-2.4,1.3-4.9,1.9-7.5,1.9c-3.4,0-6.1-0.9-8.1-2.8s-3-4.2-3-6.9s1.1-5.1,3.2-7s4.9-2.9,8.3-2.9
		c2.7,0,5,0.6,6.9,1.7v4.3c-2.3-1.3-4.5-2-6.6-2c-2,0-3.7,0.5-5,1.6c-1.3,1.1-1.9,2.5-1.9,4.2c0,1.7,0.6,3.1,1.9,4.2
		s2.9,1.7,4.9,1.7c1,0,1.9-0.1,2.8-0.4C105,177.9,106.4,177.3,108.2,176.4z"/>
	<path d="M116.9,163.2v19.1h-4.8v-19.1H116.9z"/>
	<path d="M138.5,163.2v3.5h-6.9v15.6h-4.8v-15.6h-6.9v-3.5H138.5z"/>
	<path d="M146.8,182.3v-8.9l-7.5-10.2h5.8l4.1,6l4.2-6h5.8l-7.5,10.2v8.9H146.8z"/>
	<path d="M222,178.8v3.5H208v-19.1h13.9v3.5h-9.1v4h8.7v3.5h-8.7v4.6H222z"/>
	<path d="M230.9,165.7v2.4c1.5-1.8,3.3-2.7,5.4-2.7c1.7,0,3.2,0.6,4.3,1.7s1.7,2.7,1.7,4.7v10.6h-5.2v-10.1c0-2.2-0.9-3.3-2.6-3.3
		c-1.2,0-2.4,0.9-3.6,2.7v10.7h-5.2v-16.6H230.9z"/>
	<path d="M263.6,165.7v3.5h-2.4c0.6,0.9,0.8,1.9,0.8,2.8c0,1.3-0.5,2.5-1.4,3.6s-2.4,1.7-4.3,1.9s-2.9,0.4-3.2,0.6s-0.4,0.4-0.4,0.7
		s0.2,0.5,0.5,0.7s1.6,0.4,3.9,0.6s3.8,0.8,4.7,1.8s1.3,2.1,1.3,3.2c0,1.8-0.8,3.2-2.3,4.1s-3.7,1.4-6.5,1.4c-2.9,0-5.1-0.4-6.6-1.3
		s-2.3-2-2.3-3.5c0-2,1.5-3.4,4.4-4.2c-1.3-0.4-2-1.1-2-2.2c0-1.2,1-2.1,3-2.5c-1.3-0.2-2.5-0.8-3.3-1.8s-1.3-2.1-1.3-3.4
		c0-1.6,0.6-3,1.9-4.2s3.1-1.8,5.5-1.8H263.6z M254.6,187.5c1.1,0,2-0.2,2.7-0.6s1-0.9,1-1.5c0-1.2-1.4-1.8-4.1-1.8
		c-1.2,0-2.2,0.2-2.9,0.5s-1.1,0.8-1.1,1.4C250.4,186.8,251.8,187.5,254.6,187.5z M254.2,168.8c-0.9,0-1.6,0.3-2.1,0.9
		c-0.6,0.6-0.9,1.3-0.9,2.1c0,0.8,0.3,1.5,0.9,2.1c0.6,0.6,1.3,0.9,2.1,0.9s1.5-0.3,2.1-0.9c0.6-0.6,0.9-1.4,0.9-2.2
		c0-0.8-0.3-1.5-0.9-2S255.1,168.8,254.2,168.8z"/>
	<path d="M266,160.3c0-0.8,0.3-1.5,0.8-2s1.2-0.8,2-0.8c0.8,0,1.5,0.3,2,0.8s0.8,1.2,0.8,2c0,0.8-0.3,1.5-0.8,2s-1.2,0.9-2,0.9
		c-0.8,0-1.5-0.3-2-0.9S266,161.1,266,160.3z M271.5,165.7v16.6h-5.2v-16.6H271.5z"/>
	<path d="M281.2,165.7v2.4c1.5-1.8,3.3-2.7,5.4-2.7c1.7,0,3.2,0.6,4.3,1.7s1.7,2.7,1.7,4.7v10.6h-5.2v-10.1c0-2.2-0.9-3.3-2.6-3.3
		c-1.2,0-2.4,0.9-3.6,2.7v10.7H276v-16.6H281.2z"/>
	<path d="M313.1,177.1v3.3c-2,1.5-4.5,2.2-7.4,2.2c-2.9,0-5.3-0.8-7-2.3c-1.7-1.6-2.6-3.6-2.6-6.2c0-2.5,0.8-4.6,2.5-6.2
		c1.6-1.6,3.7-2.4,6.3-2.4c2.6,0,4.6,0.9,6.3,2.6s2.4,4,2.3,6.9h-11.9c0.1,1.5,0.6,2.7,1.6,3.5c1,0.8,2.3,1.2,3.9,1.2
		C309,179.5,311,178.7,313.1,177.1z M301.6,172.1h7.2c-0.3-2.4-1.5-3.6-3.6-3.6C303.1,168.4,301.9,169.6,301.6,172.1z"/>
	<path d="M333,177.1v3.3c-2,1.5-4.5,2.2-7.4,2.2c-2.9,0-5.3-0.8-7-2.3c-1.7-1.6-2.6-3.6-2.6-6.2c0-2.5,0.8-4.6,2.5-6.2
		c1.6-1.6,3.7-2.4,6.3-2.4c2.6,0,4.6,0.9,6.3,2.6s2.4,4,2.3,6.9h-11.9c0.1,1.5,0.6,2.7,1.6,3.5c1,0.8,2.3,1.2,3.9,1.2
		C328.8,179.5,330.9,178.7,333,177.1z M321.5,172.1h7.2c-0.3-2.4-1.5-3.6-3.6-3.6C323,168.4,321.8,169.6,321.5,172.1z"/>
	<path d="M342,165.7v4.7h0.1c1.5-3.4,3.3-5.1,5.3-5.1c1,0,2.1,0.5,3.5,1.5l-1.4,4.6c-1.3-0.8-2.3-1.2-3.1-1.2c-1.2,0-2.2,0.7-3,2.2
		c-0.8,1.5-1.2,2.4-1.2,2.6v7.2h-5.2v-16.6H342z"/>
	<path d="M352.6,160.3c0-0.8,0.3-1.5,0.8-2s1.2-0.8,2-0.8c0.8,0,1.5,0.3,2,0.8s0.8,1.2,0.8,2c0,0.8-0.3,1.5-0.8,2s-1.2,0.9-2,0.9
		c-0.8,0-1.5-0.3-2-0.9S352.6,161.1,352.6,160.3z M358.1,165.7v16.6h-5.2v-16.6H358.1z"/>
	<path d="M367.8,165.7v2.4c1.5-1.8,3.3-2.7,5.4-2.7c1.7,0,3.2,0.6,4.3,1.7s1.7,2.7,1.7,4.7v10.6H374v-10.1c0-2.2-0.9-3.3-2.6-3.3
		c-1.2,0-2.4,0.9-3.6,2.7v10.7h-5.2v-16.6H367.8z"/>
	<path d="M400.5,165.7v3.5h-2.4c0.6,0.9,0.8,1.9,0.8,2.8c0,1.3-0.5,2.5-1.4,3.6s-2.4,1.7-4.3,1.9s-2.9,0.4-3.2,0.6s-0.4,0.4-0.4,0.7
		s0.2,0.5,0.5,0.7s1.6,0.4,3.9,0.6s3.8,0.8,4.7,1.8s1.3,2.1,1.3,3.2c0,1.8-0.8,3.2-2.3,4.1s-3.7,1.4-6.5,1.4c-2.9,0-5.1-0.4-6.6-1.3
		s-2.3-2-2.3-3.5c0-2,1.5-3.4,4.4-4.2c-1.3-0.4-2-1.1-2-2.2c0-1.2,1-2.1,3-2.5c-1.3-0.2-2.5-0.8-3.3-1.8s-1.3-2.1-1.3-3.4
		c0-1.6,0.6-3,1.9-4.2s3.1-1.8,5.5-1.8H400.5z M391.5,187.5c1.1,0,2-0.2,2.7-0.6s1-0.9,1-1.5c0-1.2-1.4-1.8-4.1-1.8
		c-1.2,0-2.2,0.2-2.9,0.5s-1.1,0.8-1.1,1.4C387.2,186.8,388.7,187.5,391.5,187.5z M391.1,168.8c-0.9,0-1.6,0.3-2.1,0.9
		s-0.9,1.3-0.9,2.1c0,0.8,0.3,1.5,0.9,2.1c0.6,0.6,1.3,0.9,2.1,0.9s1.5-0.3,2.1-0.9c0.6-0.6,0.9-1.4,0.9-2.2c0-0.8-0.3-1.5-0.8-2
		C392.6,169,391.9,168.8,391.1,168.8z"/>
	<path d="M427.8,178.2v2.9c-1.7,1-3.4,1.5-4.9,1.5c-1.6,0-2.6-0.6-2.9-1.9c-1.8,1.2-3.6,1.9-5.5,1.9c-1.3,0-2.4-0.4-3.3-1.2
		s-1.4-1.8-1.4-2.8c0-1.4,0.5-2.6,1.4-3.5c0.9-0.9,3.8-2,8.5-3.4c0.1-1.9-0.8-2.8-2.9-2.8c-2.2,0-4.3,0.9-6.1,2.8v-4.3
		c2.2-1.3,4.6-2,7.2-2c4.7,0,7,1.7,7,5.1v7.6c0,0.8,0.3,1.2,0.9,1.2C426.3,179.1,426.9,178.8,427.8,178.2z M419.7,178.2v-4
		c-1.7,0.6-2.9,1.2-3.6,1.6c-0.7,0.5-1,1.1-1,1.9c0,0.5,0.2,0.9,0.5,1.2c0.3,0.3,0.7,0.5,1.2,0.5
		C417.9,179.5,418.8,179.1,419.7,178.2z"/>
	<path d="M435.2,165.7v2.4c1.5-1.8,3.3-2.7,5.4-2.7c1.7,0,3.2,0.6,4.3,1.7s1.7,2.7,1.7,4.7v10.6h-5.2v-10.1c0-2.2-0.9-3.3-2.6-3.3
		c-1.2,0-2.4,0.9-3.6,2.7v10.7H430v-16.6H435.2z"/>
	<path d="M467.6,157.7v24.6h-5.2v-1.3c-1.3,1.1-2.9,1.7-4.6,1.7c-2.2,0-4.1-0.8-5.5-2.5c-1.5-1.6-2.2-3.7-2.2-6.2
		c0-2.5,0.8-4.6,2.3-6.2c1.5-1.6,3.4-2.4,5.8-2.4c1.5,0,2.9,0.4,4.3,1.1v-8.7H467.6z M462.4,177.7v-7.9c-0.9-0.6-1.9-1-2.9-1
		c-1.3,0-2.3,0.5-3.1,1.4s-1.1,2.2-1.1,3.8c0,1.5,0.4,2.7,1.1,3.7s1.7,1.4,2.9,1.4C460.4,179.1,461.4,178.6,462.4,177.7z"/>
	<path d="M492.2,170.3l6.1-7.1h4.1v19.1h-4.8v-11.9l-5.2,6h-0.7l-5.2-6v11.9h-4.8v-19.1h4.1L492.2,170.3z"/>
	<path d="M523.7,178.2v2.9c-1.7,1-3.4,1.5-4.9,1.5c-1.6,0-2.6-0.6-2.9-1.9c-1.8,1.2-3.6,1.9-5.5,1.9c-1.3,0-2.4-0.4-3.3-1.2
		s-1.4-1.8-1.4-2.8c0-1.4,0.5-2.6,1.4-3.5c0.9-0.9,3.8-2,8.5-3.4c0.1-1.9-0.8-2.8-2.9-2.8c-2.2,0-4.3,0.9-6.1,2.8v-4.3
		c2.2-1.3,4.6-2,7.2-2c4.7,0,7,1.7,7,5.1v7.6c0,0.8,0.3,1.2,0.9,1.2C522.1,179.1,522.8,178.8,523.7,178.2z M515.6,178.2v-4
		c-1.7,0.6-2.9,1.2-3.6,1.6c-0.7,0.5-1,1.1-1,1.9c0,0.5,0.2,0.9,0.5,1.2c0.3,0.3,0.7,0.5,1.2,0.5
		C513.7,179.5,514.7,179.1,515.6,178.2z"/>
	<path d="M531,165.7v2.4c1.5-1.8,3.3-2.7,5.4-2.7c1.7,0,3.2,0.6,4.3,1.7s1.7,2.7,1.7,4.7v10.6h-5.2v-10.1c0-2.2-0.9-3.3-2.6-3.3
		c-1.2,0-2.4,0.9-3.6,2.7v10.7h-5.2v-16.6H531z"/>
	<path d="M557.9,182.3v-2.4c-1.5,1.8-3.3,2.7-5.4,2.7c-1.8,0-3.3-0.6-4.4-1.7s-1.7-2.7-1.7-4.6v-10.6h5.2v10.3
		c0,2.1,0.9,3.2,2.6,3.2c1,0,1.8-0.4,2.5-1.1s1-1.3,1-1.7v-10.6h5.3v16.6H557.9z"/>
	<path d="M573.4,165.7h2.4v3.6h-2.4v13h-5.2v-13h-2.4v-3.6h2.4v-0.8c0-2.3,0.7-4.2,2-5.5s3.1-2,5.3-2c0.5,0,1.6,0.1,3.2,0.3v4.2
		c-1.1-0.1-1.9-0.2-2.3-0.2c-1.9,0-2.9,1-2.9,2.9V165.7z"/>
	<path d="M595.3,178.2v2.9c-1.7,1-3.4,1.5-4.9,1.5c-1.6,0-2.6-0.6-2.9-1.9c-1.8,1.2-3.6,1.9-5.5,1.9c-1.3,0-2.4-0.4-3.3-1.2
		s-1.4-1.8-1.4-2.8c0-1.4,0.5-2.6,1.4-3.5c0.9-0.9,3.8-2,8.5-3.4c0.1-1.9-0.8-2.8-2.9-2.8c-2.2,0-4.3,0.9-6.1,2.8v-4.3
		c2.2-1.3,4.6-2,7.2-2c4.7,0,7,1.7,7,5.1v7.6c0,0.8,0.3,1.2,0.9,1.2C593.7,179.1,594.4,178.8,595.3,178.2z M587.2,178.2v-4
		c-1.7,0.6-2.9,1.2-3.6,1.6c-0.7,0.5-1,1.1-1,1.9c0,0.5,0.2,0.9,0.5,1.2c0.3,0.3,0.7,0.5,1.2,0.5
		C585.3,179.5,586.3,179.1,587.2,178.2z"/>
	<path d="M611.9,177.7v3.7c-2,0.7-3.9,1.1-5.6,1.1c-2.9,0-5.3-0.8-7-2.3c-1.7-1.6-2.6-3.6-2.6-6.2c0-2.5,0.9-4.6,2.6-6.2
		c1.8-1.6,4-2.5,6.7-2.5c1.8,0,3.6,0.4,5.6,1.1v3.9c-1.4-0.7-2.9-1.1-4.3-1.1c-1.6,0-2.8,0.4-3.7,1.3c-0.9,0.9-1.4,2-1.4,3.5
		c0,1.5,0.5,2.7,1.4,3.5c0.9,0.9,2.1,1.3,3.6,1.3C608.3,178.9,609.9,178.5,611.9,177.7z"/>
	<path d="M627.3,165.7v3.6h-6v6.8c0,0.8,0.2,1.5,0.7,1.9s1.1,0.7,1.9,0.7c1.1,0,2.2-0.3,3.5-1v3.8c-1.7,0.7-3.3,1-4.8,1
		c-2,0-3.6-0.5-4.7-1.6s-1.7-2.6-1.7-4.6v-7.1h-2.4v-1l6.9-7.8h0.7v5.2H627.3z"/>
	<path d="M641.5,182.3v-2.4c-1.5,1.8-3.3,2.7-5.4,2.7c-1.8,0-3.3-0.6-4.4-1.7s-1.7-2.7-1.7-4.6v-10.6h5.2v10.3
		c0,2.1,0.9,3.2,2.6,3.2c1,0,1.8-0.4,2.5-1.1s1-1.3,1-1.7v-10.6h5.3v16.6H641.5z"/>
	<path d="M656.4,165.7v4.7h0.1c1.5-3.4,3.3-5.1,5.3-5.1c1,0,2.1,0.5,3.5,1.5l-1.4,4.6c-1.3-0.8-2.3-1.2-3.1-1.2
		c-1.2,0-2.2,0.7-3,2.2c-0.8,1.5-1.2,2.4-1.2,2.6v7.2h-5.2v-16.6H656.4z"/>
	<path d="M667,160.3c0-0.8,0.3-1.5,0.8-2s1.2-0.8,2-0.8c0.8,0,1.5,0.3,2,0.8s0.8,1.2,0.8,2c0,0.8-0.3,1.5-0.8,2s-1.2,0.9-2,0.9
		c-0.8,0-1.5-0.3-2-0.9S667,161.1,667,160.3z M672.5,165.7v16.6h-5.2v-16.6H672.5z"/>
	<path d="M682.1,165.7v2.4c1.5-1.8,3.3-2.7,5.4-2.7c1.7,0,3.2,0.6,4.3,1.7s1.7,2.7,1.7,4.7v10.6h-5.2v-10.1c0-2.2-0.9-3.3-2.6-3.3
		c-1.2,0-2.4,0.9-3.6,2.7v10.7h-5.2v-16.6H682.1z"/>
	<path d="M714.8,165.7v3.5h-2.4c0.6,0.9,0.8,1.9,0.8,2.8c0,1.3-0.5,2.5-1.4,3.6s-2.4,1.7-4.3,1.9s-2.9,0.4-3.2,0.6s-0.4,0.4-0.4,0.7
		s0.2,0.5,0.5,0.7s1.6,0.4,3.9,0.6s3.8,0.8,4.7,1.8s1.3,2.1,1.3,3.2c0,1.8-0.8,3.2-2.3,4.1s-3.7,1.4-6.5,1.4c-2.9,0-5.1-0.4-6.6-1.3
		s-2.3-2-2.3-3.5c0-2,1.5-3.4,4.4-4.2c-1.3-0.4-2-1.1-2-2.2c0-1.2,1-2.1,3-2.5c-1.3-0.2-2.5-0.8-3.3-1.8s-1.3-2.1-1.3-3.4
		c0-1.6,0.6-3,1.9-4.2s3.1-1.8,5.5-1.8H714.8z M705.8,187.5c1.1,0,2-0.2,2.7-0.6s1-0.9,1-1.5c0-1.2-1.4-1.8-4.1-1.8
		c-1.2,0-2.2,0.2-2.9,0.5s-1.1,0.8-1.1,1.4C701.6,186.8,703,187.5,705.8,187.5z M705.4,168.8c-0.9,0-1.6,0.3-2.1,0.9
		s-0.9,1.3-0.9,2.1c0,0.8,0.3,1.5,0.9,2.1c0.6,0.6,1.3,0.9,2.1,0.9s1.5-0.3,2.1-0.9c0.6-0.6,0.9-1.4,0.9-2.2c0-0.8-0.3-1.5-0.8-2
		C707,169,706.3,168.8,705.4,168.8z"/>
</g>
<polygon fill="#ED1C24" points="174.7,161.6 193.4,171.9 174.7,182.3 "/>
</svg>
